<?xml version="1.0" encoding="UTF-8"?>
<svg width="2610px" height="758px" viewBox="0 0 2610 758" version="1.1" xmlns="http://www.w3.org/2000/svg" xmlns:xlink="http://www.w3.org/1999/xlink">
    <!-- Generator: Sketch 51.3 (57544) - http://www.bohemiancoding.com/sketch -->
    <title>Group</title>
    <desc>Created with Sketch.</desc>
    <defs></defs>
    <g id="Page-1" stroke="none" stroke-width="1" fill="none" fill-rule="evenodd">
        <g id="gravity-logo-rectangle-inverse" transform="translate(-205.000000, -180.000000)" fill="#576CB5">
            <g id="Group" transform="translate(205.000000, 180.000000)">
                <g id="orbiter">
                    <path d="M472.035064,70.6900666 C469.014648,79.5468768 466.907475,88.7941726 465.819029,98.3317616 C437.916747,90.4823354 408.479915,86.2828283 378.0596,86.2828283 C212.491205,86.2828283 76.0564155,210.684374 57.6022099,370.878567 C53.4710017,370.088561 49.2056613,369.674972 44.8434623,369.674972 C39.386403,369.674972 34.0809245,370.322228 29,371.543962 C47.2814599,195.376153 196.584465,58 378.0596,58 C410.609931,58 442.125224,62.4196504 472.035066,70.6900673 Z M682.692997,234.112551 C712.155256,285.340675 729,344.708458 729,408 C729,464.385261 715.630836,517.656354 691.881436,564.832359 C684.929607,558.288649 676.995279,552.772022 668.322406,548.525776 C689.026804,506.067655 700.641179,458.386534 700.641179,408 C700.641179,348.587775 684.493188,292.937008 656.335618,245.175024 C665.560823,242.304918 674.380812,238.584949 682.692999,234.112554 Z M40.449706,503.877762 C41.9022369,503.971045 43.3673038,504.018406 44.8434623,504.018406 C53.2659668,504.018406 61.3273862,502.476559 68.7594272,499.66044 C108.333093,632.685047 231.834367,729.717172 378.0596,729.717172 C438.884768,729.717172 495.778004,712.92768 544.334162,683.74204 C549.333975,691.952489 555.5406,699.351034 562.708528,705.692822 C509.071094,738.85459 445.807179,758 378.0596,758 C217.575449,758 82.2512523,650.566087 40.4497078,503.877768 Z" id="Combined-Shape"></path>
                    <circle id="Oval" cx="604.5" cy="116.5" r="116.5"></circle>
                    <circle id="Oval" cx="379.5" cy="408.5" r="188.5"></circle>
                    <circle id="Oval" cx="621" cy="628" r="72"></circle>
                    <circle id="Oval" cx="44.5" cy="436.5" r="44.5"></circle>
                </g>
                <path d="M1080.315,285 C1122.44167,285 1155.33833,301.921668 1179.005,335.765 L1144.925,363.81 C1128.35833,340.853332 1106.585,329.375 1079.605,329.375 C1057.12167,329.375 1038.9575,336.593332 1025.1125,351.03 C1011.2675,365.466668 1004.345,383.926668 1004.345,406.41 C1004.345,429.366668 1011.50417,448.181668 1025.8225,462.855 C1040.14083,477.528332 1059.015,484.865 1082.445,484.865 C1109.66167,484.865 1130.25167,475.161668 1144.215,455.755 L1144.215,436.585 L1079.605,436.585 L1079.605,395.05 L1192.14,395.05 L1192.14,464.275 C1181.49,483.208332 1166.28417,498.5325 1146.5225,510.2475 C1126.76083,521.9625 1104.69167,527.82 1080.315,527.82 C1045.05167,527.82 1015.35,516.164168 991.21,492.8525 C967.07,469.540832 955,440.726668 955,406.41 C955,372.093332 967.07,343.279168 991.21,319.9675 C1015.35,296.655832 1045.05167,285 1080.315,285 Z M1466.36385,523.56 L1412.40385,523.56 L1351.69885,440.845 L1316.55385,440.845 L1316.55385,523.56 L1268.62885,523.56 L1268.62885,289.26 L1356.66885,289.26 C1381.51885,289.26 1401.81302,296.1825 1417.55135,310.0275 C1433.28968,323.8725 1441.15885,342.155 1441.15885,364.875 C1441.15885,379.785 1437.49052,392.979168 1430.15385,404.4575 C1422.81718,415.935832 1412.75885,424.87 1399.97885,431.26 L1466.36385,523.56 Z M1316.55385,331.505 L1316.55385,398.6 L1356.66885,398.6 C1367.79218,398.6 1376.48968,395.523332 1382.76135,389.37 C1389.03302,383.216668 1392.16885,375.051668 1392.16885,364.875 C1392.16885,354.935 1388.97385,346.888332 1382.58385,340.735 C1376.19385,334.581668 1367.55552,331.505 1356.66885,331.505 L1316.55385,331.505 Z M1682.0127,523.56 L1668.8777,493.03 L1573.0277,493.03 L1559.8927,523.56 L1508.4177,523.56 L1613.1427,285 L1629.1177,285 L1733.4877,523.56 L1682.0127,523.56 Z M1651.8377,453.625 L1620.9527,374.815 L1590.0677,453.625 L1651.8377,453.625 Z M1920.73655,289.26 L1974.69655,289.26 L1870.32655,527.82 L1854.35155,527.82 L1749.62655,289.26 L1803.94155,289.26 L1862.51655,431.26 L1920.73655,289.26 Z M2089.5254,289.26 L2089.5254,523.56 L2041.6004,523.56 L2041.6004,289.26 L2089.5254,289.26 Z M2354.16425,289.26 L2354.16425,332.57 L2278.90425,332.57 L2278.90425,523.56 L2230.97925,523.56 L2230.97925,332.57 L2156.07425,332.57 L2156.07425,289.26 L2354.16425,289.26 Z M2609.2181,289.26 L2528.6331,431.26 L2528.6331,523.56 L2480.7081,523.56 L2480.7081,431.615 L2399.7681,289.26 L2453.0181,289.26 L2504.4931,382.27 L2556.3231,289.26 L2609.2181,289.26 Z" id="GRAVITY"></path>
            </g>
        </g>
    </g>
</svg>